<svg xmlns="http://www.w3.org/2000/svg" enable-background="new 0 0 66 66" viewBox="0 0 66 66"><path fill="#7cb5e8" d="M64,11.92v49.51c0,1.1-0.9,2-2,2H4c-1.11,0-2-0.9-2-2V11.92H64z"/><path fill="#fff" d="M64,11.92v39.77H50.56c-21.96,0-39.77-17.81-39.77-39.77v0H64z" opacity=".3"/><path fill="#ffab03" d="M64,4.57v7.35H21.02V2.57H62C63.1,2.57,64,3.47,64,4.57z"/><path fill="#fff" d="M64,4.57v4.27H30.9c-3.46,0-6.27-2.81-6.27-6.27v0H62C63.1,2.57,64,3.47,64,4.57z" opacity=".3"/><path fill="#ef4a51" d="M21.02,2.57v9.35H2V4.57c0-1.1,0.89-2,2-2H21.02z"/><path fill="#fff" d="M21.02,2.57v6.27h-9.35c-3.46,0-6.27-2.81-6.27-6.27v0H21.02z" opacity=".3"/><path d="M62,64.43H4c-1.65,0-3-1.35-3-3v-32.7c0-0.55,0.45-1,1-1s1,0.45,1,1v32.7c0,0.55,0.45,1,1,1h58c0.55,0,1-0.45,1-1v-48.5H3v8.47c0,0.55-0.45,1-1,1s-1-0.45-1-1v-9.47c0-0.55,0.45-1,1-1h62c0.55,0,1,0.45,1,1v49.5C65,63.08,63.65,64.43,62,64.43z"/><path d="M64,12.92H21.03c-0.55,0-1-0.45-1-1V2.57c0-0.55,0.45-1,1-1H62c1.65,0,3,1.35,3,3v7.35C65,12.48,64.55,12.92,64,12.92z M22.03,10.92H63V4.57c0-0.55-0.45-1-1-1H22.03V10.92z"/><path d="M21.03 12.92H2c-.55 0-1-.45-1-1V4.57c0-1.65 1.35-3 3-3h17.03c.55 0 1 .45 1 1v9.35C22.03 12.48 21.58 12.92 21.03 12.92zM3 10.92h17.03V3.57H4c-.55 0-1 .45-1 1V10.92zM58.96 8.25H24.63c-.55 0-1-.45-1-1s.45-1 1-1h34.32c.55 0 1 .45 1 1S59.51 8.25 58.96 8.25z"/><path d="M7.11 8.25H6.39c-.55 0-1-.45-1-1s.45-1 1-1h.72c.55 0 1 .45 1 1S7.66 8.25 7.11 8.25zM11.87 8.25h-.72c-.55 0-1-.45-1-1s.45-1 1-1h.72c.55 0 1 .45 1 1S12.42 8.25 11.87 8.25zM16.64 8.25h-.72c-.55 0-1-.45-1-1s.45-1 1-1h.72c.55 0 1 .45 1 1S17.19 8.25 16.64 8.25z"/><rect width="52.52" height="17.87" x="6.74" y="18.68" fill="#8aba55"/><path fill="#fff" d="M59.26,18.68v13.1H25.01c-7.23,0-13.1-5.87-13.1-13.1v0H59.26z" opacity=".3"/><path fill="#fff" d="M59.26,18.68H45.6v0c0,1.84,1.49,3.33,3.33,3.33h4.86c1.13,0,2.05,0.92,2.05,2.05v4c0,1.84,1.49,3.33,3.33,3.33h0.09V18.68z" opacity=".3"/><path d="M59.26,37.55H43.4c-0.55,0-1-0.45-1-1s0.45-1,1-1h14.86V19.68H7.74v15.87H37.4c0.55,0,1,0.45,1,1s-0.45,1-1,1H6.74c-0.55,0-1-0.45-1-1V18.68c0-0.55,0.45-1,1-1h52.52c0.55,0,1,0.45,1,1v17.87C60.26,37.1,59.81,37.55,59.26,37.55z"/><rect width="13.04" height="14.32" x="6.74" y="42.35" fill="#4e6575"/><rect width="13.04" height="14.32" x="26.48" y="42.35" fill="#ffab03"/><rect width="13.05" height="14.32" x="46.21" y="42.35" fill="#e2e2e2"/><path fill="#fff" d="M19.78 42.35v9.82h0c-4.61 0-8.34-3.73-8.34-8.34v-1.48H19.78zM39.52 42.35v9.82h0c-4.61 0-8.34-3.73-8.34-8.34v-1.48H39.52zM59.26 42.35v9.82h0c-4.61 0-8.34-3.73-8.34-8.34v-1.48H59.26z" opacity=".3"/><path d="M19.79 57.67H6.74c-.55 0-1-.45-1-1V42.35c0-.55.45-1 1-1h13.04c.55 0 1 .45 1 1v14.33C20.79 57.23 20.34 57.67 19.79 57.67zM7.74 55.67h11.04V43.35H7.74V55.67zM39.52 57.67H26.48c-.55 0-1-.45-1-1V42.35c0-.55.45-1 1-1h13.04c.55 0 1 .45 1 1v14.33C40.52 57.23 40.08 57.67 39.52 57.67zM27.48 55.67h11.04V43.35H27.48V55.67zM59.26 57.67H46.22c-.55 0-1-.45-1-1V42.35c0-.55.45-1 1-1h13.04c.55 0 1 .45 1 1v8.09c0 .55-.45 1-1 1s-1-.45-1-1v-7.09H47.22v12.33h11.04v-1.3c0-.55.45-1 1-1s1 .45 1 1v2.3C60.26 57.23 59.81 57.67 59.26 57.67z"/></svg>