<svg xmlns="http://www.w3.org/2000/svg" viewBox="0 0 64 64"><path fill="#1D2021" d="M62.346 50.306H.86V.721h61.485v49.585zM2.844 48.322h57.519V2.704H2.844v45.618z"/><path fill="#1D2021" d="M39.537 26.505H4.827V4.688h34.71v21.817zM6.812 24.521h30.741V6.671H6.812v17.85zM41.521 4.688h16.858v1.983H41.521zM41.521 8.654h16.858v1.983H41.521zM41.521 12.621h16.858v1.984H41.521zM41.521 16.588h16.858v1.983H41.521zM41.521 20.555h16.858v1.983H41.521zM41.521 24.521h16.858v1.983H41.521z"/><path fill="#1D2021" d="M21.687 46.339H4.827V28.488h16.859v17.851zM6.812 44.355h12.892V30.472H6.812v13.883zm32.725 1.984H23.669V28.488h15.868v17.851zm-13.884-1.984h11.9V30.472h-11.9v13.883zm32.726 1.984H41.521V28.488h16.858v17.851zm-14.875-1.984h12.892V30.472H43.504v13.883zM21.687 22.539a6.95 6.95 0 0 1-6.942-6.942 6.95 6.95 0 0 1 6.942-6.942c3.827 0 6.941 3.115 6.941 6.942 0 3.826-3.115 6.942-6.941 6.942zm0-11.902c-2.734 0-4.958 2.226-4.958 4.959s2.225 4.958 4.958 4.958 4.958-2.225 4.958-4.958-2.225-4.959-4.958-4.959zm35.701 51.569H10.514l-8.677-4.958 8.677-4.959h46.874a4.965 4.965 0 0 1 4.958 4.959 4.965 4.965 0 0 1-4.958 4.958zm-46.347-1.983h46.347a2.978 2.978 0 0 0 2.975-2.975 2.978 2.978 0 0 0-2.975-2.976H11.041l-5.206 2.976 5.206 2.975z"/><path fill="#1D2021" d="M52.429 53.281h1.983v7.934h-1.983zM48.462 53.281h1.983v7.934h-1.983zM10.778 53.281h1.983v7.934h-1.983z"/></svg>